<svg xmlns="http://www.w3.org/2000/svg" viewBox="0 0 64 64" width="64" height="64">
  <defs>
    <filter id="f-shadow" x="-10%" y="-10%" width="120%" height="120%">
      <feDropShadow dx="0" dy="2" stdDeviation="2" flood-color="#000" flood-opacity="0.35"/>
    </filter>
  </defs>
  <rect width="64" height="64" rx="14" fill="#1C1B1F"/>
  <rect x="4" y="4" width="56" height="56" rx="11" fill="#2B2930" stroke="#49454F" stroke-width="1.5"/>
  <rect x="7" y="7" width="23" height="23" rx="5" fill="#D32F2F"/>
  <circle cx="14" cy="14" r="2.8" fill="#FFF" opacity="0.95"/>
  <circle cx="23" cy="14" r="2.8" fill="#FFF" opacity="0.95"/>
  <circle cx="14" cy="23" r="2.8" fill="#FFF" opacity="0.95"/>
  <circle cx="23" cy="23" r="2.8" fill="#FFF" opacity="0.95"/>
  <rect x="34" y="7" width="23" height="23" rx="5" fill="#2E7D32"/>
  <circle cx="41" cy="14" r="2.8" fill="#FFF" opacity="0.95"/>
  <circle cx="50" cy="14" r="2.8" fill="#FFF" opacity="0.95"/>
  <circle cx="41" cy="23" r="2.8" fill="#FFF" opacity="0.95"/>
  <circle cx="50" cy="23" r="2.8" fill="#FFF" opacity="0.95"/>
  <rect x="34" y="34" width="23" height="23" rx="5" fill="#F9A825"/>
  <circle cx="41" cy="41" r="2.8" fill="#FFF" opacity="0.95"/>
  <circle cx="50" cy="41" r="2.8" fill="#FFF" opacity="0.95"/>
  <circle cx="41" cy="50" r="2.8" fill="#FFF" opacity="0.95"/>
  <circle cx="50" cy="50" r="2.8" fill="#FFF" opacity="0.95"/>
  <rect x="7" y="34" width="23" height="23" rx="5" fill="#1976D2"/>
  <circle cx="14" cy="41" r="2.8" fill="#FFF" opacity="0.95"/>
  <circle cx="23" cy="41" r="2.8" fill="#FFF" opacity="0.95"/>
  <circle cx="14" cy="50" r="2.8" fill="#FFF" opacity="0.95"/>
  <circle cx="23" cy="50" r="2.8" fill="#FFF" opacity="0.95"/>
  <polygon points="32,24 40,32 32,40 24,32" fill="#FFD54F" stroke="#1C1B1F" stroke-width="1.5" filter="url(#f-shadow)"/>
  <circle cx="32" cy="32" r="3.5" fill="#1C1B1F"/>
</svg>